# xmcd
#
# Track frame offsets: 
#        150
#        9306
#        20279
#        32619
#        45456
#        56652
#        67276
#        79972
#        88388
#        99265
#        110603
#        122177
#        133328
#        144268
#        154014
#        165930
#        174981
#        186066
#        197468
#        209980
#        221634
#        233864
#        245429
#        255800
#        266705
#        277898
#
# Disc length: 3840 seconds
#
# Revision: 0
# Processed by: cddbd v1.5.2PL0 Copyright (c) Steve Scherf et al.
# Submitted via: ExactAudioCopy v1.1
#
DISCID=6d0efe1a
DTITLE=George Jones - Big Box Of George Jones_CD4
DYEAR=2015
DGENRE=Country
TTITLE0=Jesus Wants Me
TTITLE1=I Could Never Be Ashamed Of You
TTITLE2=Hawling At The Moon
TTITLE3=White Lightning
TTITLE4=Big Fall Of The Year
TTITLE5=It's Ok
TTITLE6=You're Back Again
TTITLE7=A Little Bitty Tear
TTITLE8=I Can't Help It (If I'm Still In Love With You)
TTITLE9=Gonna Come Get You
TTITLE10=What Am I Worth
TTITLE11=Who Shot Sam
TTITLE12=Poor Little Rich Boy
TTITLE13=Trouble In My Mind
TTITLE14=Crazy Arms (Leon Payne)
TTITLE15=Poor Man's Riches
TTITLE16=Mansion On The Hill
TTITLE17=You Win Again
TTITLE18=I Take The Chance (with Jeanette Hicks)
TTITLE19=Just One More
TTITLE20=Begger To A King
TTITLE21=They'll Never Take Her Love From Me
TTITLE22=Conscience I'm Guilty (Benny Barnes)
TTITLE23=Not Even Friends
TTITLE24=Tall Tall Trees
TTITLE25=Are You Mine?
EXTD=
EXTT0=
EXTT1=
EXTT2=
EXTT3=
EXTT4=
EXTT5=
EXTT6=
EXTT7=
EXTT8=
EXTT9=
EXTT10=
EXTT11=
EXTT12=
EXTT13=
EXTT14=
EXTT15=
EXTT16=
EXTT17=
EXTT18=
EXTT19=
EXTT20=
EXTT21=
EXTT22=
EXTT23=
EXTT24=
EXTT25=
PLAYORDER=
